/* XPM */
static char *ipmsgrev[] = {
/* columns rows colors chars-per-pixel */
"22 22 183 2",
"   c #010000",
".  c #0E0E0E",
"X  c #1E1E0B",
"o  c #1A1819",
"O  c #363621",
"+  c #3C3C2E",
"@  c #141458",
"#  c #000060",
"$  c #3B5454",
"%  c #424244",
"&  c #454548",
"*  c #525266",
"=  c #5D5D61",
"-  c #646463",
";  c #68686C",
":  c #7C7772",
">  c #7E7E7D",
",  c #0000B2",
"<  c #333396",
"1  c #3232B7",
"2  c #1010C8",
"3  c #1919DC",
"4  c #0B0BEC",
"5  c #0303F6",
"6  c #0101FC",
"7  c #0B0BF3",
"8  c #0D0DFF",
"9  c #1717E6",
"0  c #1313F5",
"q  c #1915F0",
"w  c #1D1DF4",
"e  c #2B2BCC",
"r  c #2424D8",
"t  c #3333C4",
"y  c #2121EC",
"u  c #2929E1",
"i  c #2828ED",
"p  c #2222F4",
"a  c #3131EC",
"s  c #5555A5",
"d  c #747487",
"f  c #73738B",
"g  c #7B7B81",
"h  c #7B7B8D",
"j  c #6E6EA6",
"k  c #7A7AA2",
"l  c #4444E6",
"z  c #4242EE",
"x  c #4D4DE2",
"c  c #5555E4",
"v  c #645ED8",
"b  c #746FC8",
"n  c #7070D0",
"m  c #6C858A",
"M  c #718A8F",
"N  c #7E9798",
"B  c #8E0000",
"V  c #970606",
"C  c #AE0000",
"Z  c #B10202",
"A  c #DB0000",
"S  c #C63535",
"D  c #C93838",
"F  c #D42626",
"G  c #EF0C0C",
"H  c #FC0000",
"J  c #FD2F00",
"K  c #FF3700",
"L  c #FC3D00",
"P  c #EE292B",
"I  c #EA293B",
"U  c #E73939",
"Y  c #EB3135",
"T  c #EA3B35",
"R  c #E93B3B",
"E  c #F22222",
"W  c #E4314C",
"Q  c #FC4D00",
"!  c #F2451C",
"~  c #FC5100",
"^  c #FE5F00",
"/  c #FD6700",
"(  c #FB6B02",
")  c #F67B16",
"_  c #EE7529",
"`  c #DF4D52",
"'  c #DF5A59",
"]  c #D66974",
"[  c #E14F4F",
"{  c #E14E50",
"}  c #E3524F",
"|  c #E8564F",
" . c #E25050",
".. c #BFBF33",
"X. c #9A9A5B",
"o. c #81816E",
"O. c #8A8A6E",
"+. c #848474",
"@. c #80807C",
"#. c #8B8673",
"$. c #888874",
"%. c #8B8B7C",
"&. c #93936A",
"*. c #A4A45A",
"=. c #B4B447",
"-. c #ECBD31",
";. c #D8AC70",
":. c #CECE28",
">. c #CDCD30",
",. c #C9C93D",
"<. c #DCDC3C",
"1. c #EBCB33",
"2. c #E5E512",
"3. c #FFE400",
"4. c #FDEB00",
"5. c #FCF500",
"6. c #FCFC00",
"7. c #F7F610",
"8. c #CBCB44",
"9. c #CBCB4D",
"0. c #D2D256",
"q. c #D3D35D",
"w. c #C5C56F",
"e. c #D8D86A",
"r. c #DCDC7E",
"t. c #EEEE46",
"y. c #F1F150",
"u. c #848484",
"i. c #838388",
"p. c #8A8A8A",
"a. c #A8A8BF",
"s. c #B3B3BC",
"d. c #BAB5B6",
"f. c #BBBBB7",
"g. c #BDBCBC",
"h. c #8C8CCE",
"j. c #8888D0",
"k. c #A89DC1",
"l. c #A7A7C5",
"z. c #ACA6C0",
"x. c #ABABC6",
"c. c #A5BED7",
"v. c #A1BAD8",
"b. c #B6B6C1",
"n. c #B5B5CB",
"m. c #B9B4C7",
"M. c #BBBBC4",
"N. c #B8BBCC",
"B. c #AFC8D3",
"V. c #B3CCCD",
"C. c #BCC5C2",
"Z. c #B9C3CB",
"A. c #BCC8C3",
"S. c #B9CCCD",
"D. c #B5CED1",
"F. c #B2CBDC",
"G. c #BBD2CD",
"H. c #B7D1D1",
"J. c #B8D1D0",
"K. c #AEE4E6",
"L. c #C496AB",
"P. c #C29CB1",
"I. c #C5A3AA",
"U. c #C0B7B6",
"Y. c #C1BBB6",
"T. c #C0BABA",
"R. c #D9D484",
"E. c #DDDD8B",
"W. c #D5D593",
"Q. c #C6CFA8",
"!. c #C0C0B6",
"~. c #C4C4BB",
"^. c #CCC6B6",
"/. c #CEC8B5",
"(. c #CBCBBB",
"). c #D6D6B7",
"_. c #E0E086",
"`. c #F2F289",
"'. c #C0C0C1",
"]. c #CCCCCB",
"[. c #C2D6C9",
"{. c #C6DFCC",
"}. c #C7E0CE",
/* pixels */
"H K / / ( L I '  . .{ { { {  . . .} ` {  .E ",
"L 4.6.6.6.5._ M.H.J.J.S.J.D.H.H.J.F.{.G.K.' ",
"~ 6.5.5.5.6.4.P S.Y.f.M.~./.T.T.m.R.b k.[. .",
"Q 6.6.6.6.6.5.1.N.T.M.W.p.a g.N._.O.6 q B. .",
"Q 6.6.6.6.6.5.-.N.g.~.8.5 6 x ].q.t 6 5 v.| ",
"~ 6.5.5.5.6.5.Y S.T.~.8.6 6 l `.X.6 5 5 c.| ",
"! 7.6.6.6.3.K I.C.g.~.,.6 6 c w.9 6 6 v {.{ ",
"W Q.) / ( ;.] g.M.g.M.e.s 6 i 8 6 6 w z.J.{ ",
"T M.P.L.L.Z.S.g.g.g.b.].n 6 6 6 5 6 l.^.D.` ",
"R g.C.A.A.g.T.g.N.~.M.y.k 6 5 6 6 l ~.g.J.{ ",
"R g.g.g.g.g.N.'.E.9.8...3 5 6 6 c (.T.g.D.{ ",
"R g.g.~.g.N.r.0.O.4 6 6 6 6 6 8 j.~.g.g.J. .",
"R g.g.g.g.g.<.1 6 6 6 0 0 0 6 6 a (.f.T.D.{ ",
"R '.g.'.b.6.s 6 7 6 p b.(.x.6 6 l ).b.T.J. .",
"U g.f.n.t.:.9 7 5 w s.f.f.a.7 6 0 h.g.d.V.} ",
"F > @.f 2.d 6 5 6 f %.g f *.&.6 5 6 r #.M S ",
"F > > g >.6 5 5 e @.> > > > =.t 6 6 u #.M D ",
"F > > g =.6 6 8 j %.> > > g +.> 2 , * : p.D ",
"F > > > h < # @ + % u.@.u.u.i.u.+.X   o $ D ",
"F > > > > $.O       . o - - - - ; =       V ",
"F > > > > g i.& %                         B ",
"G F F F F F F R [ Z Z Z Z Z Z Z Z Z C C C A "
};
