/* XPM */
static char *ipmsg[] = {
/* columns rows colors chars-per-pixel */
"22 22 152 2",
"   c #010000",
".  c #0E0E0E",
"X  c #0B1E1E",
"o  c #1A1818",
"O  c #213636",
"+  c #2E3C3C",
"@  c #3B5454",
"#  c #581414",
"$  c #610000",
"%  c #444242",
"&  c #484545",
"*  c #665252",
"=  c #615D5D",
"-  c #646463",
";  c #6C6868",
":  c #787677",
">  c #7D7D7D",
",  c #0E03ED",
"<  c #0502F6",
"1  c #0000FC",
"2  c #0608F7",
"3  c #0903F3",
"4  c #0909F2",
"5  c #1600E5",
"6  c #1200EA",
"7  c #1A03E1",
"8  c #1918E4",
"9  c #0531F8",
"0  c #2500D7",
"q  c #2008DB",
"w  c #2800D5",
"e  c #2727D6",
"r  c #2533D6",
"t  c #273DD6",
"y  c #3F43BD",
"u  c #3148CB",
"i  c #4700B5",
"p  c #63009A",
"a  c #6B0F92",
"s  c #770C84",
"d  c #7B0080",
"f  c #683C95",
"g  c #4C59B1",
"h  c #72708A",
"j  c #777B86",
"k  c #767A88",
"l  c #787385",
"z  c #7C7C81",
"x  c #7C807E",
"c  c #6E8181",
"v  c #738485",
"b  c #72848A",
"n  c #748888",
"m  c #788480",
"M  c #798886",
"N  c #7F8F8F",
"B  c #7F9797",
"V  c #8E0000",
"C  c #970606",
"Z  c #953334",
"A  c #AE0000",
"S  c #B10202",
"D  c #9E005D",
"F  c #8E006D",
"G  c #850076",
"H  c #890072",
"J  c #950065",
"K  c #91006A",
"L  c #AD004D",
"P  c #A50056",
"I  c #A30059",
"U  c #B40046",
"Y  c #B0024B",
"T  c #BA0041",
"R  c #8B6D71",
"E  c #8F726C",
"W  c #817D7C",
"Q  c #8C7F74",
"!  c #BB4C42",
"~  c #B96044",
"^  c #A66E6E",
"/  c #C71011",
"(  c #DB0000",
")  c #CE012E",
"_  c #C0003B",
"`  c #D60026",
"'  c #D2072A",
"]  c #DC0120",
"[  c #D41E24",
"{  c #CC2B2B",
"}  c #C53435",
"|  c #C83635",
" . c #C93838",
".. c #D42626",
"X. c #D63825",
"o. c #EF0C0C",
"O. c #E50016",
"+. c #E2011A",
"@. c #E90212",
"#. c #F50005",
"$. c #F30008",
"%. c #FC0000",
"&. c #FD0A00",
"*. c #FF0C0C",
"=. c #FA1602",
"-. c #FF2300",
";. c #FD2F00",
":. c #FA3401",
">. c #FD3E00",
",. c #E22B29",
"<. c #EB3D3D",
"1. c #C55337",
"2. c #DF651D",
"3. c #FE4500",
"4. c #FC4C00",
"5. c #FD5300",
"6. c #FF5B00",
"7. c #F56507",
"8. c #FD6300",
"9. c #FB6C00",
"0. c #FE7500",
"q. c #817B87",
"w. c #9D915F",
"e. c #81807B",
"r. c #8C9B6F",
"t. c #958467",
"y. c #8BA171",
"u. c #B98A42",
"i. c #B79744",
"p. c #C29F39",
"a. c #C0AF3B",
"s. c #C3B337",
"d. c #CAB633",
"f. c #D6AF27",
"g. c #D2AC29",
"h. c #D4B028",
"j. c #F48F09",
"k. c #FF9200",
"l. c #E4B817",
"z. c orange",
"x. c #DDCB1E",
"c. c #FFCC00",
"v. c #FCD601",
"b. c #E5E517",
"n. c #E3EC19",
"m. c #FCED00",
"M. c #F4FF08",
"N. c #FCF600",
"B. c #FCFC00",
"V. c #848484",
"C. c #85888A",
"Z. c #888383",
/* pixels */
"%.;.9.8.9.3.L H K K K F K K K K F J J J F ) ",
">.m.B.B.B.B.1.2 1 1 1 1 1 1 1 1 1 1 1 1 1 G ",
"5.B.N.N.N.B.B._ 1 3 < 1 1 1 1 < 1 g a 0 1 J ",
"4.B.B.B.B.N.B.i.1 < 1 r ~ P 3 1 u j.&.] 1 F ",
"4.B.B.B.B.B.N.u.1 < 1 g.&.%.J 1 t.>.$.%.1 H ",
"5.B.N.N.N.M.M.U 1 < 1 g.%.%.J 9 z.%.&.#.1 H ",
"X.b.B.B.B.N.3.7 1 1 1 l.%.&.d E =.#.%.d 1 J ",
"J e 2.8.7.f p < 1 < 1 h 6.%.) ] %.#.` w 1 K ",
"U 1 , 7 5 1 1 1 1 < < 1 s %.%.%.%.%.7 1 1 F ",
"L 1 1 1 1 < < 1 1 1 1 b ! %.#.%.%.I < < 1 K ",
"L 1 < 1 1 1 1 1 t p.f.c.-.%.%.#.F 1 1 < 1 F ",
"L 1 1 1 1 1 g w.k.&.%.%.%.%.%.#.i 1 1 < 1 K ",
"L 1 1 1 2 8 a.4.#.%.%.@.+.O.#.%.T 1 < < 1 K ",
"L 1 1 1 1 B.6.#.&.%.) 6 1 5 %.%.D 1 1 < 1 F ",
"U < 4 2 r.v.=.%.%.' 7 2 < q &.%.O.i , , 2 K ",
"..z > h n.0.%.%.%.R b > l y.k.%.&.%...v b } ",
"..x > j x.%.#.%.{ > > > W x d.:.%.%.,.M n | ",
"..x > j s.&.%.*.^ N > > > : x Q / A * : B } ",
"..> > > q.Z $ # + % V.> V.V.V.C.c X   o @  .",
"..> > > x n O       . o ; - - - ; =       C ",
"..> > > > W Z.& & .                       V ",
"o.............<.<.S A A S S S S S S A S A ( "
};
